<?xml version="1.0" encoding="UTF-8"?>
<svg width="48px" height="48px" viewBox="0 0 48 48" version="1.1" xmlns="http://www.w3.org/2000/svg" xmlns:xlink="http://www.w3.org/1999/xlink">
    <title>noun / logomark</title>
    <g id="noun-/-logomark" stroke="none" stroke-width="1" fill="none" fill-rule="evenodd">
        <path d="M18.2564816,27.5169085 C18.8056377,27.7171882 19.5058291,28.1046258 20.3549678,28.7676205 C20.9869497,29.2545073 21.6982774,29.8960929 22.4854707,30.720002 C22.9622412,31.2179387 23.4675483,31.7876998 24.002088,32.4292854 C19.1503707,39.1250797 16.173888,39.0125312 13.8666213,38.9979531 L11.8900296,38.9970773 L6.85296677,38.9936242 L4,38.9936242 C8.25613363,34.896869 10.772229,32.4755569 11.546894,31.7303784 C11.612798,31.6667982 11.6858116,31.5947067 11.7654676,31.5154161 L12.0238956,31.2572595 C13.3185249,29.9639894 15.8234731,27.5169085 18.2564816,27.5169085 Z M24.002088,15.1693216 C24.6591265,14.5318797 25.8040717,13.2908364 27.4362276,11.4468822 C28.9598051,9.73000198 32.1774839,8 36.1607795,8 L44,8 C41.4762485,8.7451785 38.3525318,15.1120001 36.954933,17.2045774 C35.5538542,19.2971546 33.5173134,21.0706656 31.9825996,21.9629461 C31.9387507,21.812391 31.9067339,21.6583829 31.8740212,21.5078278 C31.9032539,21.661836 31.9387507,21.812391 31.9791195,21.9663992 L31.9825996,21.9663992 C33.0224465,26.1515537 37.0280146,31.603995 44,38.3237232 C43.364538,38.6027335 41.9926918,38.7677916 40.3243431,38.8610253 C38.9448408,38.9397559 37.3739342,38.972215 35.8392205,38.9825743 C34.7520445,38.9936242 33.6906212,38.9936242 32.7370802,38.9936242 C30.4875587,36.7076735 28.909692,34.5039065 27.8726292,32.4078762 C27.6707848,32.0066262 27.4905168,31.6122825 27.3311293,31.2179387 C23.5072212,21.8517563 30.3065947,14.7894808 34.6692187,12.2279729 C34.6740908,12.2252104 34.681051,12.2203761 34.6907952,12.2134699 C34.8063337,12.1485516 35.3332173,11.8550383 35.7556986,11.7403955 C35.7814512,11.7334893 35.8065077,11.7258925 35.8280842,11.7224394 C35.8607969,11.7155332 35.8935097,11.7079364 35.9220463,11.7044833 C36.0702975,11.679621 36.1927962,11.6899803 36.2617018,11.7583516 C36.2422133,11.6678804 36.1927962,11.5553094 36.1134505,11.4213293 L36.1134505,11.4178762 C36.0090482,11.2210496 35.8788933,11.0594446 35.7202018,10.9448018 C35.2176788,10.5905139 34.4019488,10.6657915 33.0113102,11.4503353 C32.6215417,11.4213293 32.2568297,11.4392854 31.9136941,11.4931537 L31.910214,11.4931537 C30.7583087,11.665118 29.8409605,12.245929 28.9848617,13.0339259 L28.9813816,13.037379 L28.9744214,13.0408321 C28.4614582,13.5173596 27.9707674,14.0657115 27.4647642,14.6534288 L27.4612841,14.6568819 C27.4362276,14.6858879 27.410475,14.7107502 27.3854185,14.7397562 L27.2517835,14.8937644 L27.2483035,14.8972175 L27.0095702,15.1727747 L26.5947451,15.6534459 L26.5655124,15.6852144 C26.4318775,15.8357694 26.2982426,15.9863245 26.1576475,16.1403326 C25.135897,17.2618988 24.3055507,18.1217201 23.4348356,18.8137209 C22.4130851,19.634177 21.3335653,20.2218942 19.8273882,20.7336433 C19.0617714,20.9953881 18.317731,21.0458033 17.6064033,20.9636196 C17.5089612,20.9525697 17.4149991,20.9380667 17.317557,20.9201106 C15.1870541,20.5547728 13.4212633,18.9960445 12.6055333,18.1507262 C11.9919035,17.5226852 9.96780632,15.1527067 6.53286317,11.040415 L6.00704031,10.4105038 C5.38123529,9.66036215 4.71222253,8.85686154 4,8 L12.7134157,8 C15.1077084,8 19.4014268,8.78109071 24.002088,15.1693216 Z" id="Combined-Shape" fill="#00ACEE"></path>
    </g>
</svg>