<svg width="82" height="65" viewBox="0 0 82 65" fill="none" xmlns="http://www.w3.org/2000/svg">
<g filter="url(#filter0_d_34_58)">
<rect x="4" width="74" height="57" rx="10" fill="#F56262"/>
<rect x="5" y="1" width="72" height="55" rx="9" stroke="white" stroke-width="2"/>
</g>
<path d="M24.4436 27.9648H21.7994C21.7511 27.6228 21.6525 27.3189 21.5036 27.0533C21.3547 26.7836 21.1635 26.5542 20.9301 26.3651C20.6966 26.1759 20.427 26.031 20.1211 25.9304C19.8193 25.8298 19.4913 25.7795 19.1371 25.7795C18.4972 25.7795 17.9398 25.9384 17.4649 26.2564C16.99 26.5703 16.6217 27.0291 16.3601 27.6328C16.0985 28.2325 15.9677 28.9609 15.9677 29.8182C15.9677 30.6996 16.0985 31.4401 16.3601 32.0398C16.6257 32.6394 16.996 33.0922 17.4709 33.3981C17.9458 33.704 18.4952 33.8569 19.119 33.8569C19.4691 33.8569 19.7931 33.8106 20.0909 33.718C20.3928 33.6255 20.6604 33.4906 20.8938 33.3136C21.1273 33.1325 21.3205 32.9131 21.4734 32.6555C21.6304 32.398 21.739 32.1042 21.7994 31.7741L24.4436 31.7862C24.3751 32.3537 24.2041 32.901 23.9304 33.4283C23.6608 33.9515 23.2965 34.4203 22.8377 34.8349C22.383 35.2454 21.8396 35.5714 21.2078 35.8129C20.5799 36.0503 19.8696 36.169 19.0767 36.169C17.974 36.169 16.988 35.9195 16.1186 35.4205C15.2533 34.9214 14.5692 34.199 14.0661 33.2532C13.567 32.3074 13.3175 31.1624 13.3175 29.8182C13.3175 28.4699 13.5711 27.3229 14.0782 26.3771C14.5853 25.4313 15.2735 24.7109 16.1428 24.2159C17.0121 23.7169 17.9901 23.4673 19.0767 23.4673C19.7931 23.4673 20.4572 23.5679 21.0689 23.7692C21.6847 23.9704 22.23 24.2642 22.7049 24.6506C23.1798 25.0329 23.5662 25.5018 23.864 26.0572C24.1659 26.6126 24.359 27.2485 24.4436 27.9648ZM28.5865 23.6364V36H26.0147V23.6364H28.5865ZM34.5812 36.1811C33.6435 36.1811 32.8325 35.9819 32.1483 35.5835C31.4682 35.181 30.9429 34.6216 30.5727 33.9052C30.2024 33.1848 30.0173 32.3497 30.0173 31.3999C30.0173 30.442 30.2024 29.6049 30.5727 28.8885C30.9429 28.1681 31.4682 27.6087 32.1483 27.2102C32.8325 26.8078 33.6435 26.6065 34.5812 26.6065C35.5189 26.6065 36.3279 26.8078 37.008 27.2102C37.6922 27.6087 38.2195 28.1681 38.5897 28.8885C38.96 29.6049 39.1451 30.442 39.1451 31.3999C39.1451 32.3497 38.96 33.1848 38.5897 33.9052C38.2195 34.6216 37.6922 35.181 37.008 35.5835C36.3279 35.9819 35.5189 36.1811 34.5812 36.1811ZM34.5933 34.1889C35.0199 34.1889 35.3761 34.0682 35.6618 33.8267C35.9476 33.5812 36.1629 33.2472 36.3078 32.8246C36.4567 32.402 36.5311 31.921 36.5311 31.3817C36.5311 30.8424 36.4567 30.3615 36.3078 29.9389C36.1629 29.5163 35.9476 29.1823 35.6618 28.9368C35.3761 28.6913 35.0199 28.5685 34.5933 28.5685C34.1626 28.5685 33.8004 28.6913 33.5066 28.9368C33.2169 29.1823 32.9975 29.5163 32.8486 29.9389C32.7037 30.3615 32.6313 30.8424 32.6313 31.3817C32.6313 31.921 32.7037 32.402 32.8486 32.8246C32.9975 33.2472 33.2169 33.5812 33.5066 33.8267C33.8004 34.0682 34.1626 34.1889 34.5933 34.1889ZM48.2776 29.3714L45.9231 29.5163C45.8829 29.3151 45.7964 29.134 45.6636 28.973C45.5307 28.808 45.3557 28.6772 45.1383 28.5806C44.925 28.48 44.6695 28.4297 44.3717 28.4297C43.9732 28.4297 43.6372 28.5142 43.3635 28.6832C43.0898 28.8482 42.953 29.0696 42.953 29.3473C42.953 29.5687 43.0415 29.7558 43.2186 29.9087C43.3957 30.0617 43.6995 30.1844 44.1302 30.277L45.8084 30.6151C46.71 30.8002 47.3821 31.098 47.8248 31.5085C48.2675 31.919 48.4888 32.4583 48.4888 33.1264C48.4888 33.7341 48.3098 34.2674 47.9516 34.7262C47.5974 35.185 47.1104 35.5432 46.4906 35.8008C45.8749 36.0543 45.1645 36.1811 44.3596 36.1811C43.1321 36.1811 42.1541 35.9255 41.4256 35.4144C40.7012 34.8993 40.2766 34.199 40.1518 33.3136L42.6813 33.1808C42.7578 33.555 42.9429 33.8408 43.2367 34.038C43.5305 34.2312 43.9068 34.3278 44.3656 34.3278C44.8164 34.3278 45.1786 34.2412 45.4523 34.0682C45.73 33.8911 45.8708 33.6637 45.8749 33.386C45.8708 33.1526 45.7722 32.9614 45.579 32.8125C45.3859 32.6596 45.088 32.5429 44.6856 32.4624L43.0798 32.1424C42.1742 31.9613 41.5001 31.6474 41.0574 31.2006C40.6187 30.7539 40.3994 30.1844 40.3994 29.4922C40.3994 28.8965 40.5603 28.3834 40.8823 27.9528C41.2083 27.5221 41.6651 27.1901 42.2527 26.9567C42.8443 26.7232 43.5365 26.6065 44.3294 26.6065C45.5006 26.6065 46.4222 26.854 47.0943 27.3491C47.7705 27.8441 48.1649 28.5182 48.2776 29.3714ZM54.0791 36.1811C53.1253 36.1811 52.3042 35.9879 51.616 35.6016C50.9318 35.2112 50.4046 34.6598 50.0344 33.9474C49.6641 33.2311 49.479 32.3839 49.479 31.4059C49.479 30.4521 49.6641 29.6149 50.0344 28.8945C50.4046 28.1741 50.9258 27.6127 51.5979 27.2102C52.2741 26.8078 53.0669 26.6065 53.9765 26.6065C54.5882 26.6065 55.1577 26.7051 55.6849 26.9023C56.2162 27.0955 56.679 27.3873 57.0734 27.7777C57.4719 28.1681 57.7818 28.6591 58.0031 29.2507C58.2245 29.8383 58.3351 30.5265 58.3351 31.3153V32.0217H50.5052V30.4279H55.9143C55.9143 30.0576 55.8338 29.7296 55.6729 29.4439C55.5119 29.1581 55.2885 28.9348 55.0028 28.7738C54.721 28.6088 54.393 28.5263 54.0187 28.5263C53.6283 28.5263 53.2822 28.6168 52.9804 28.7979C52.6826 28.975 52.4491 29.2145 52.2801 29.5163C52.1111 29.8142 52.0245 30.1462 52.0205 30.5124V32.0277C52.0205 32.4865 52.105 32.8829 52.2741 33.217C52.4471 33.551 52.6906 33.8086 53.0045 33.9897C53.3185 34.1708 53.6907 34.2614 54.1214 34.2614C54.4071 34.2614 54.6687 34.2211 54.9062 34.1406C55.1436 34.0601 55.3469 33.9394 55.5159 33.7784C55.6849 33.6174 55.8137 33.4202 55.9023 33.1868L58.2808 33.3438C58.1601 33.9152 57.9126 34.4143 57.5383 34.8409C57.168 35.2635 56.6891 35.5935 56.1015 35.831C55.5179 36.0644 54.8438 36.1811 54.0791 36.1811ZM63.1753 36.1509C62.471 36.1509 61.8331 35.9698 61.2616 35.6076C60.6941 35.2414 60.2434 34.7041 59.9093 33.9957C59.5793 33.2834 59.4143 32.41 59.4143 31.3757C59.4143 30.3132 59.5853 29.4298 59.9274 28.7255C60.2695 28.0172 60.7243 27.4879 61.2918 27.1378C61.8633 26.7836 62.4891 26.6065 63.1693 26.6065C63.6884 26.6065 64.1211 26.6951 64.4672 26.8722C64.8174 27.0452 65.0991 27.2625 65.3124 27.5241C65.5297 27.7817 65.6947 28.0353 65.8074 28.2848H65.8859V23.6364H68.4516V36H65.9161V34.5149H65.8074C65.6867 34.7725 65.5156 35.0281 65.2943 35.2816C65.0769 35.5311 64.7932 35.7384 64.4431 35.9034C64.0969 36.0684 63.6744 36.1509 63.1753 36.1509ZM63.9903 34.1044C64.4048 34.1044 64.755 33.9917 65.0407 33.7663C65.3305 33.5369 65.5518 33.217 65.7048 32.8065C65.8617 32.396 65.9402 31.915 65.9402 31.3636C65.9402 30.8123 65.8638 30.3333 65.7108 29.9268C65.5579 29.5204 65.3365 29.2064 65.0468 28.9851C64.757 28.7637 64.4048 28.6531 63.9903 28.6531C63.5677 28.6531 63.2115 28.7678 62.9218 28.9972C62.632 29.2266 62.4126 29.5445 62.2637 29.951C62.1148 30.3575 62.0404 30.8284 62.0404 31.3636C62.0404 31.9029 62.1148 32.3799 62.2637 32.7944C62.4167 33.2049 62.636 33.5269 62.9218 33.7603C63.2115 33.9897 63.5677 34.1044 63.9903 34.1044Z" fill="white"/>
<defs>
<filter id="filter0_d_34_58" x="0" y="0" width="82" height="65" filterUnits="userSpaceOnUse" color-interpolation-filters="sRGB">
<feFlood flood-opacity="0" result="BackgroundImageFix"/>
<feColorMatrix in="SourceAlpha" type="matrix" values="0 0 0 0 0 0 0 0 0 0 0 0 0 0 0 0 0 0 127 0" result="hardAlpha"/>
<feOffset dy="4"/>
<feGaussianBlur stdDeviation="2"/>
<feComposite in2="hardAlpha" operator="out"/>
<feColorMatrix type="matrix" values="0 0 0 0 0 0 0 0 0 0 0 0 0 0 0 0 0 0 0.25 0"/>
<feBlend mode="normal" in2="BackgroundImageFix" result="effect1_dropShadow_34_58"/>
<feBlend mode="normal" in="SourceGraphic" in2="effect1_dropShadow_34_58" result="shape"/>
</filter>
</defs>
</svg>
