<?xml version="1.0" encoding="utf-8"?>
<!-- Generator: Adobe Illustrator 27.6.1, SVG Export Plug-In . SVG Version: 6.00 Build 0)  -->
<svg version="1.1" id="Layer_1" xmlns="http://www.w3.org/2000/svg" xmlns:xlink="http://www.w3.org/1999/xlink" x="0px" y="0px"
	 viewBox="0 0 358 102" style="enable-background:new 0 0 358 102;" xml:space="preserve">
<style type="text/css">
	.st0{fill:none;}
	.st1{fill:#00ACEE;}
	.st2{fill:#030303;}
</style>
<g id="pages">
	<g id="logo_black" transform="translate(0.720207, 0.000000)">
		<rect id="Rectangle" x="-33.7" class="st0" width="425" height="101"/>
		<g id="enterprise-logo" transform="translate(32.279793, 13.000000)">
			<path id="Combined-Shape-Copy" class="st1" d="M-24.9,0L-24.9,0L-24.9,0h12.7v0h0l0,0c0,0,0,0,0,0l0,0h1.1
				c6,0,16.9,1.9,28.5,17.6c0,0,0.3,0.4,0.8,0.8c-0.5-0.4-0.8-0.8-0.8-0.8l0,0l0,0c0.1-0.1,0.3-0.3,0.8-0.8l0.2-0.2
				c1.2-1.3,3.7-3.8,7.6-8.1C29.9,4.2,38,0,48.1,0l0,0h3.6l0,0l0,0l7.7,0l0,0h8.5c-6.4,1.8-14.2,17.4-17.8,22.6
				c-3.5,5.1-8.7,9.5-12.5,11.7c3.9,15.4,30.3,40.1,30.3,40.1c-1.6,0.7-5.1,1.1-9.3,1.3l0,0c-0.2-0.2-0.4-0.3-0.6-0.5l0,0l0.3,0.3
				l0,0l0.3,0.3c-3.5,0.2-7.4,0.3-11.3,0.3l0,0v0c-1.8,0-3.6,0-5.3,0l-1.7,0l0,0l-0.8,0c-5.7-5.6-9.7-11-12.3-16.1
				c-0.5-1-1-2-1.4-2.9c-9.6-23,7.5-40.3,18.5-46.6c0,0,0,0,0.1,0c0.3-0.2,1.6-0.9,2.7-1.2l0,0c0.1,0,0.1,0,0.2,0c0.1,0,0.2,0,0.2,0
				l0,0c0.4-0.1,0.7,0,0.9,0.1c0,0-0.1-0.3-0.4-0.8c0,0,0,0,0,0c-0.3-0.5-0.6-0.9-1-1.2c-1.3-0.9-3.3-0.7-6.8,1.2
				c-1-0.1-1.9,0-2.8,0.1l0.2,0l0,0c0,0-0.1,0.1-0.1,0.1c0,0,0.1-0.1,0.1-0.1l0,0l-0.2,0l0,0l0,0l0,0l0,0c-2.9,0.4-5.2,1.8-7.4,3.8
				l0,0l0,0l0,0c-1.3,1.2-2.5,2.5-3.8,3.9c0,0,0,0,0,0c-0.1,0.1-0.1,0.1-0.2,0.2l0,0l-0.1,0.1c-0.1,0.1-0.2,0.2-0.2,0.3c0,0,0,0,0,0
				l0,0l0,0L25,17.6l-1,1.2l-0.1,0.1c-0.3,0.4-0.7,0.7-1,1.1c-2.6,2.8-4.7,4.9-6.9,6.6c0,0,0,0,0,0c-2.6,2-5.3,3.4-9.1,4.7
				C5,31.9,3.1,32,1.3,31.8c-0.2,0-0.5-0.1-0.7-0.1c-5.4-0.9-9.8-4.7-11.9-6.8c-1.2-1.2-5-5.6-9.2-10.3l-0.6-0.7
				C-26.9,7.2-33,0-33,0l0,0H-24.9L-24.9,0z M2.9,47.2c1.4,0.5,3.2,1.5,5.3,3.1c1.6,1.2,3.4,2.8,5.4,4.9c1.2,1.3,2.5,2.7,3.8,4.3
				C6.2,75-1.1,76-6.7,76l-0.6,0c-0.4,0-0.9,0-1.3,0l-4.6,0l-12.7,0H-33c0,0,4.2-4,8.7-8.3l0.6-0.6c4.1-4,8.4-8,9.8-9.3
				C-11.3,55.2-4.1,47.2,2.9,47.2z"/>
			<g id="Group" transform="translate(130.090141, 15.000000)">
				<g>
					<path id="Path" class="st2" d="M-0.7,15c0,9-7,14.9-17.4,14.9h-10.3V45H-33V25.7h15.4c7.3,0,12.4-4.2,12.4-10.6
						c0-7-5.1-10.7-12.4-10.7c-1,0-2,0-2.9,0L-33,4.9V0.5C-28.1,0.2-23.1,0-18,0C-7.7,0-0.7,5.5-0.7,15"/>
					<path id="Shape" class="st2" d="M36.2,29.7c0,9.7-6.8,16.3-16.5,16.3c-9.6,0-16.5-6.5-16.5-16.3c0-9.7,6.8-16.1,16.5-16.1
						C29.4,13.6,36.2,20.1,36.2,29.7 M31.7,29.7c0-7.3-4.9-12-11.9-12c-7,0-11.9,4.8-11.9,12c0,7.3,4.9,12.2,11.9,12.2
						C26.8,41.9,31.7,37,31.7,29.7"/>
					<polygon id="Path_00000141440254381341320680000011095494862053823656_" class="st2" points="73,45 64.5,21.3 56,45 51.7,45 
						40.7,14.8 45.2,14.8 54,38.7 62.7,14.8 66.4,14.8 75,38.8 83.8,14.8 88.4,14.8 77.4,45 					"/>
					<path id="Shape_00000023277791891162188650000011805318390468166318_" class="st2" d="M122.9,28.1c0,1.5-0.1,2-0.3,3.5h-25
						c0.7,6.2,5,10.3,11.6,10.3c3.8,0,7-0.7,11.1-1.7l0.7,3.7c-3.9,1.2-7.3,2.1-11.9,2.1c-10.3,0-16.3-6.7-16.3-16.1
						c0-9.7,6.5-16,15.6-16C116.9,13.8,122.8,19.3,122.9,28.1 M97.5,28h21.3c-0.1-6.6-4.2-10.6-10.2-10.6
						C102.2,17.4,98,21.6,97.5,28"/>
					<path id="Path_00000085954310147930557180000017455255025784512156_" class="st2" d="M148.6,18.4c-4.4,0-7.9,0.1-12.3,0.7V45
						h-4.5V15.6c5.5-1,11.1-1.6,16.8-1.6V18.4z"/>
					<path id="Shape_00000018198717835235275100000003877955573168282800_" class="st2" d="M177.2,22.9l-3.1,3.7L189.4,45h5.5
						L177.2,22.9z M188.5,0.5L174.2,19l3.1,3.9l17.1-22.3H188.5L188.5,0.5z"/>
				</g>
				<polygon id="Path_00000101060895287676282610000007900393815835818149_" class="st1" points="178.6,21.8 175.5,25.4 175.4,25.3 
					159.8,43.3 154.2,43.3 172.2,21.8 154.8,0 160.7,0 175.4,18.1 175.5,18 				"/>
			</g>
		</g>
	</g>
</g>
</svg>
