<?xml version="1.0" encoding="UTF-8"?>
<svg width="426px" height="102px" viewBox="0 0 426 102" version="1.1" xmlns="http://www.w3.org/2000/svg" xmlns:xlink="http://www.w3.org/1999/xlink">
    <g id="pages" stroke="none" stroke-width="1" fill="none" fill-rule="evenodd">
        <g id="logo_white" transform="translate(0.720207, 0.000000)">
            <rect id="Rectangle" x="-0.720207254" y="0.103626943" width="425" height="101"></rect>
            <g id="enterprise-logo" transform="translate(32.279793, 11.103627)" fill-rule="nonzero">
                <path d="M8.16403816,0 L8.1653592,0.00128444652 L8.1653592,0 L20.9609698,0 L20.9609698,0.00385333956 C20.9570067,0.00385333956 20.9636119,0.00770667912 20.9768223,0.0154133582 C20.9715382,0.00899112564 20.9649329,0.00513778608 20.9636119,0.00385333956 L20.9636119,0.00385333956 L22.0838553,0.00385333956 C28.1527212,0.00385333956 39.0381054,1.93951425 50.7002622,17.8178421 C50.7002622,17.8178421 50.97636,18.2095983 51.4770348,18.6450257 C50.979002,18.2044605 50.7029043,17.8165577 50.7029043,17.8165577 C50.7029043,17.8165577 50.7967326,17.7273013 50.9930768,17.5335621 L51.099832,17.4279151 C51.1190618,17.4088326 51.1390136,17.3890069 51.1596923,17.3684292 L51.5250268,17.0022614 C52.704152,15.8129013 55.2100432,13.219275 59.4151748,8.56854274 C63.2739378,4.30546474 71.4313708,0.00128444652 81.5333772,0.00128444652 L81.5333772,0.00128444652 L85.1107583,0.00128444652 L85.1107583,0.00128444652 L85.115382,0.00064222326 L92.815074,0 L92.8137529,0.00128444652 L101.40713,0.00128444652 C95.0066823,1.85730967 87.0883579,17.6675619 83.5453238,22.8682858 C79.9970056,28.0715787 74.8238061,32.4862214 70.9346591,34.7006072 C74.0592663,47.0222641 91.2665119,65.2398588 98.3551086,72.3472302 L98.8736345,72.8653922 C100.451536,74.4368434 101.408702,75.3407391 101.408451,75.3404951 C99.7914956,76.0302429 96.3131926,76.4374124 92.088501,76.6673284 L92.088501,76.6673284 C91.8929868,76.4952125 91.6948305,76.3179589 91.4940322,76.1355675 L91.514,76.153 L91.7902758,76.4080307 L91.7902758,76.4080307 L92.0805747,76.6698972 C88.5917034,76.8638487 84.6021573,76.9473377 80.7130103,76.9781644 L80.7130103,76.9781644 L80.7130103,76.97688 C78.878964,76.9922933 77.0708981,76.9974311 75.3524674,76.9991437 L73.6663216,76.9999683 L73.6663216,76.9999683 L72.8501696,77 C67.1459113,71.3201775 63.1457968,65.8510042 60.5156026,60.643858 C60.0083226,59.6471275 59.5512421,58.6606726 59.1483244,57.6819243 C49.4531988,34.4128912 66.6901519,16.871205 77.7459505,10.5067725 C77.7459505,10.5067725 77.764445,10.4952125 77.8040763,10.4746614 C78.0973476,10.3115367 79.4289577,9.5806866 80.5042857,9.29425502 L80.5042857,9.29425502 C80.5663746,9.27627277 80.6284636,9.26085941 80.6892315,9.24801495 C80.7698151,9.23131714 80.8477565,9.21333489 80.9217349,9.20434376 L80.9217349,9.20434376 C81.2982318,9.14525922 81.6099976,9.17351705 81.7856962,9.34306399 C81.7856962,9.34306399 81.7143599,9.00140121 81.4118414,8.50303596 C81.4105203,8.49661373 81.4078783,8.49532929 81.4065572,8.49147595 C81.1449909,8.00467071 80.8160515,7.60520785 80.4078496,7.32006072 C79.1409706,6.43764596 77.0708981,6.62517515 73.5476797,8.56854274 C72.5568984,8.50560486 71.6400954,8.54413825 70.7695289,8.6751518 L70.983,8.646 L70.9501826,8.6746833 C70.9094611,8.70752877 70.8726931,8.73408049 70.8406694,8.75355176 C70.8744722,8.73054026 70.9106471,8.70280846 70.9507756,8.67114307 L70.981,8.646 L70.7695289,8.6751518 C70.7715104,8.67450957 70.773492,8.67354624 70.7754735,8.67258291 L70.7683729,8.67483069 L70.7563184,8.67772069 C67.832853,9.11186362 65.5038563,10.5504437 63.3360268,12.5143624 L63.3360268,12.5143624 L63.3307426,12.5182158 L63.3148901,12.5310603 C62.0110219,13.7076133 60.7652795,15.0742644 59.4812269,16.5282578 C59.4812269,16.5282578 59.4812269,16.5321112 59.4759427,16.5372489 C59.4125327,16.6078935 59.3504438,16.6746847 59.2857127,16.7466137 L59.2857127,16.7466137 L59.1866346,16.8583606 C59.1034089,16.9457029 59.0254675,17.0330453 58.947526,17.124241 C58.947526,17.124241 58.947526,17.1255255 58.9435629,17.1293788 L58.9435629,17.1293788 L58.9382787,17.1383699 L58.3305995,17.8242644 L57.2790503,19.0110929 L57.2050719,19.0971509 C56.8642431,19.4722092 56.5247354,19.8459832 56.1746593,20.2210416 C53.5840964,23.0082905 51.4757137,25.1456095 49.270895,26.8693368 C49.2669319,26.8719057 49.2629688,26.875759 49.2590057,26.8770434 C46.6684427,28.9077534 43.9352073,30.3668846 40.1187176,31.6410556 C38.1833914,32.2845633 36.2916596,32.4168613 34.4884376,32.2062121 C34.2440449,32.1779542 34.0022942,32.1458431 33.7592225,32.1060252 C28.3561617,31.1966371 23.8844353,27.3163241 21.8117207,25.2239608 C20.5567839,23.9602709 16.1834423,18.9252693 11.678848,13.6823607 L11.0640521,12.9664646 C5.52861689,6.51782522 0,0 0,0 L0,0 L8.16403816,0 L8.16403816,0 Z M36.1401193,47.7931034 C37.533782,48.3008447 39.3118579,49.2860732 41.4637789,50.9658285 C43.0595558,52.2101892 44.8614098,53.8386443 46.8600939,55.9380096 C48.0740997,57.2073627 49.3528348,58.651663 50.7042254,60.2853796 C39.384619,75.9586942 32.096676,76.9669584 26.4461031,76.9991295 L25.8801864,76.9995798 C25.6933467,76.9989704 25.5082758,76.9977762 25.3248819,76.9965215 L24.960303,76.9940868 C24.8395039,76.993352 24.719423,76.9927455 24.600033,76.9924229 L19.9987304,76.9921712 L7.22591024,76.9869096 L0,76.9869096 C0,76.9869096 4.04492452,73.0792094 8.45874035,68.8152023 L9.03624534,68.2572988 L9.03624534,68.2572988 L9.61612156,67.6971052 C9.71286449,67.6036461 9.80963069,67.5101645 9.90638239,67.416697 L10.4864165,66.8563522 C14.2515795,63.2190012 17.8798058,59.7139991 19.1308285,58.5056545 C19.4028665,58.2425315 19.722611,57.9221374 20.0849563,57.5588418 L20.6597866,56.9835183 C24.0237001,53.6284778 30.1687182,47.7931034 36.1401193,47.7931034 Z" id="Combined-Shape-Copy" fill="#00ACEE"></path>
                <g id="Group" transform="translate(130.816901, 15.197368)">
                    <g fill="#FFFFFF">
                        <path d="M32.5028548,15.1627222 C32.5028548,24.2305663 25.4412402,30.2539503 15.0386783,30.2539503 L4.64200345,30.2539503 L4.64200345,45.5447663 L0,45.5447663 L0,26.0179206 L15.5008181,26.0179206 C22.8244101,26.0179206 27.9285534,21.7133757 27.9285534,15.2282586 C27.9285534,8.14437772 22.8244101,4.37306017 15.5008181,4.37306017 C14.5029493,4.37306017 13.5227418,4.37901801 12.5395908,4.39093371 L0.00294356592,4.99863417 L0.00294356592,0.533227364 C4.97168283,0.199587896 9.9404221,0 15.0416218,0 C25.4382966,0.00297892382 32.5028548,5.5646297 32.5028548,15.1627222" id="Path"></path>
                        <path d="M69.5888418,30.1228777 C69.5888418,39.9860944 62.786261,46.6052632 53.0430578,46.6052632 C43.3616695,46.6052632 36.4943302,39.9831155 36.4943302,30.1228777 C36.4943302,20.3281761 43.3616695,13.7745427 53.0430578,13.7745427 C62.786261,13.7715648 69.5888418,20.3251972 69.5888418,30.1228777 M65.0115968,30.1228777 C65.0115968,22.7768515 60.1046724,17.9450371 53.0430578,17.9450371 C46.043258,17.9450371 41.0715752,22.7768515 41.0715752,30.1228777 C41.0715752,37.5374191 46.043258,42.5003061 53.0430578,42.5003061 C60.1046724,42.5003061 65.0115968,37.5344401 65.0115968,30.1228777" id="Shape"></path>
                        <polygon id="Path" points="106.61007 45.5447663 98.0413499 21.5823031 89.5403316 45.5447663 85.1573619 45.5447663 74.1013283 14.9631343 78.6815169 14.9631343 87.5122147 39.2562581 96.2752104 14.9631343 99.93995 14.9631343 108.573429 39.3217944 117.465941 14.9631343 122.04613 14.9631343 110.99304 45.5447663"></polygon>
                        <path d="M156.777264,28.466596 C156.777264,29.9888261 156.712506,30.5190745 156.515287,31.9727894 L131.33308,31.9727894 C132.054254,38.2612975 136.369522,42.4317909 143.039642,42.4317909 C146.898657,42.4317909 150.039442,41.7704698 154.160434,40.7129518 L154.878664,44.4187331 C150.954891,45.6103026 147.555072,46.5367479 142.910125,46.5367479 C132.575265,46.5367479 126.558617,39.7209702 126.558617,30.188414 C126.558617,20.3907335 133.09922,13.9711527 142.25371,13.9711527 C150.757672,13.9711527 156.712506,19.5298246 156.777264,28.466596 M131.203564,28.4010597 L152.656272,28.4010597 C152.591513,21.7163546 148.470521,17.6769339 142.389114,17.6769339 C135.913269,17.6769339 131.727518,21.9129636 131.203564,28.4010597" id="Shape"></path>
                        <path d="M182.612942,18.6718945 C178.229973,18.6718945 174.697694,18.8029671 170.249965,19.3332156 L170.249965,45.5447663 L165.737479,45.5447663 L165.737479,15.8240433 C171.230173,14.8320617 176.923029,14.2362769 182.612942,14.2362769 L182.612942,18.6718945 Z" id="Path"></path>
                        <path d="M211.392186,23.1700695 L208.272006,26.9145767 L223.622703,45.5417874 L229.183099,45.5417874 L211.392186,23.1700695 Z M222.772012,0.536206288 L208.307329,19.2438479 L211.392186,23.1700695 L228.594385,0.536206288 L222.772012,0.536206288 L222.772012,0.536206288 Z" id="Shape"></path>
                    </g>
                    <polygon id="Path" fill="#00ACEE" points="212.812877 22.061079 209.647145 25.7103455 209.560535 25.6058319 193.902106 43.8637771 188.257545 43.8637771 206.373897 22.061079 188.85784 0 194.759243 0 209.560535 18.3827809 209.679997 18.2318168"></polygon>
                </g>
            </g>
        </g>
    </g>
</svg>