<svg aria-hidden="true" style="position: absolute; width: 0; height: 0; overflow: hidden;" version="1.1" xmlns="http://www.w3.org/2000/svg" xmlns:xlink="http://www.w3.org/1999/xlink">
  <defs>
    <symbol id="icon-menu" viewBox="0 0 32 32">
      <path fill="currentColor" d="M4 8h24v2.688h-24v-2.688zM4 17.312v-2.625h24v2.625h-24zM4 24v-2.688h24v2.688h-24z"></path>
    </symbol>
    <symbol id="icon-close" viewBox="0 0 24 24">
      <path fill="currentColor" d="M18.984 6.422l-5.578 5.578 5.578 5.578-1.406 1.406-5.578-5.578-5.578 5.578-1.406-1.406 5.578-5.578-5.578-5.578 1.406-1.406 5.578 5.578 5.578-5.578z"></path>
    </symbol>
    <symbol id="icon-logout" viewBox="0 0 32 32">
      <path fill="currentColor" d="M0 7.9v16.199c0 2.232 1.821 4.053 4.053 4.053h13.092c2.232 0 4.053-1.821 4.053-4.053v-2.624c0-0.444-0.359-0.803-0.803-0.803s-0.803 0.359-0.803 0.803v2.624c0 1.351-1.103 2.454-2.454 2.454h-13.086c-1.351 0-2.454-1.103-2.454-2.454v-16.199c0-1.351 1.103-2.454 2.454-2.454h13.092c1.351 0 2.454 1.103 2.454 2.454v2.624c0 0.444 0.359 0.803 0.803 0.803s0.803-0.359 0.803-0.803v-2.624c0-2.232-1.821-4.053-4.053-4.053h-13.099c-2.232 0-4.053 1.814-4.053 4.053z"></path>
      <path fill="currentColor" d="M25.154 22.037c0.157 0.157 0.359 0.235 0.568 0.235s0.411-0.078 0.568-0.235l5.476-5.476c0.313-0.313 0.313-0.816 0-1.129l-5.476-5.476c-0.313-0.313-0.816-0.313-1.129 0s-0.313 0.816 0 1.129l4.112 4.112h-15.005c-0.444 0-0.803 0.359-0.803 0.803s0.359 0.803 0.803 0.803h14.998l-4.112 4.112c-0.313 0.307-0.313 0.816 0 1.123z"></path>
    </symbol>
    <symbol id="icon-exit" viewBox="0 0 32 32">
      <path fill="currentColor" d="M24 20v-4h-10v-4h10v-4l6 6zM22 18v8h-10v6l-12-6v-26h22v10h-2v-8h-16l8 4v18h8v-6z"></path>
    </symbol>
    <symbol id="icon-search" viewBox="0 0 32 32">
      <path fill="currentColor" d="M31.715 28.953c0.381 0.381 0.381 0.999 0 1.381l-1.381 1.381c-0.382 0.381-1 0.381-1.381 0l-9.668-9.668c-0.105-0.105-0.175-0.229-0.222-0.361-1.983 1.449-4.418 2.314-7.063 2.314-6.627 0-12-5.373-12-12s5.373-12 12-12c6.627 0 12 5.373 12 12 0 2.645-0.865 5.080-2.314 7.063 0.132 0.047 0.256 0.116 0.361 0.222l9.668 9.668zM12 4c-4.418 0-8 3.582-8 8s3.582 8 8 8 8-3.582 8-8c0-4.418-3.582-8-8-8z"></path>
    </symbol>
    <symbol id="icon-wifi" viewBox="0 0 24 24">
      <path fill="currentColor" d="M5.016 12.984q2.906-2.859 7.008-2.859t6.961 2.859l-1.969 2.016q-0.844-0.844-2.32-1.453t-2.695-0.609-2.695 0.609-2.32 1.453zM9 17.016q1.266-1.266 3-1.266t3 1.266l-3 3zM0.984 9q4.594-4.547 11.039-4.547t10.992 4.547l-2.016 2.016q-3.75-3.703-9-3.703t-9 3.703z"></path>
    </symbol>
    <symbol id="icon-notifications" viewBox="0 0 24 24">
      <path fill="currentColor" d="M18 15.984l2.016 2.016v0.984h-16.031v-0.984l2.016-2.016v-4.969q0-2.344 1.195-4.078t3.305-2.25v-0.703q0-0.609 0.422-1.055t1.078-0.445 1.078 0.445 0.422 1.055v0.703q2.109 0.516 3.305 2.25t1.195 4.078v4.969zM12 21.984q-0.844 0-1.43-0.563t-0.586-1.406h4.031q0 0.797-0.609 1.383t-1.406 0.586z"></path>
    </symbol>
    <symbol id="icon-time" viewBox="0 0 20 20">
      <path fill="currentColor" d="M10 20c-5.523 0-10-4.477-10-10s4.477-10 10-10v0c5.523 0 10 4.477 10 10s-4.477 10-10 10v0zM10 18c4.418 0 8-3.582 8-8s-3.582-8-8-8v0c-4.418 0-8 3.582-8 8s3.582 8 8 8v0zM9 10.41v-6.41h2v5.59l3.95 3.95-1.41 1.41-4.54-4.54z"></path>
    </symbol>
    <symbol id="icon-download" viewBox="0 0 24 24">
      <path fill="currentColor" d="M16.707 7.404c-0.189-0.188-0.448-0.283-0.707-0.283s-0.518 0.095-0.707 0.283l-2.293 2.293v-6.697c0-0.552-0.448-1-1-1s-1 0.448-1 1v6.697l-2.293-2.293c-0.189-0.188-0.44-0.293-0.707-0.293s-0.518 0.105-0.707 0.293c-0.39 0.39-0.39 1.024 0 1.414l4.707 4.682 4.709-4.684c0.388-0.387 0.388-1.022-0.002-1.412z"></path>
      <path fill="currentColor" d="M20.987 16c0-0.105-0.004-0.211-0.039-0.316l-2-6c-0.136-0.409-0.517-0.684-0.948-0.684h-0.219c-0.094 0.188-0.21 0.368-0.367 0.525l-1.482 1.475h1.348l1.667 5h-13.893l1.667-5h1.348l-1.483-1.475c-0.157-0.157-0.274-0.337-0.367-0.525h-0.219c-0.431 0-0.812 0.275-0.948 0.684l-2 6c-0.035 0.105-0.039 0.211-0.039 0.316-0.013 0-0.013 5-0.013 5 0 0.553 0.447 1 1 1h16c0.553 0 1-0.447 1-1 0 0 0-5-0.013-5z"></path>
    </symbol>
    <symbol id="icon-triangle-up" viewBox="0 0 20 20">
      <path fill="currentColor" d="M15 14h-10l5-9 5 9z"></path>
    </symbol>
    <symbol id="icon-triangle-down" viewBox="0 0 20 20">
      <path fill="currentColor" d="M5 6h10l-5 9-5-9z"></path>
    </symbol>
    <symbol id="icon-arrow-left" viewBox="0 0 32 32">
      <path fill="currentColor" d="M12.586 27.414l-10-10c-0.781-0.781-0.781-2.047 0-2.828l10-10c0.781-0.781 2.047-0.781 2.828 0s0.781 2.047 0 2.828l-6.586 6.586h19.172c1.105 0 2 0.895 2 2s-0.895 2-2 2h-19.172l6.586 6.586c0.39 0.39 0.586 0.902 0.586 1.414s-0.195 1.024-0.586 1.414c-0.781 0.781-2.047 0.781-2.828 0z"></path>
    </symbol>
    <symbol id="icon-logo" viewBox="0 0 32 32">
      <path fill="#00acee" style="fill: var(--color1, #00acee)" d="M12.171 18.345c0.366 0.134 0.833 0.392 1.399 0.834 0.421 0.325 0.896 0.752 1.42 1.302 0.318 0.332 0.655 0.712 1.011 1.14-3.234 4.464-5.219 4.389-6.757 4.379l-6.578-0.003c2.837-2.731 4.515-4.345 5.031-4.842 0.044-0.042 0.093-0.090 0.146-0.143l0.172-0.172c0.863-0.862 2.533-2.494 4.155-2.494zM16.001 10.113c0.438-0.425 1.201-1.252 2.289-2.482 1.016-1.145 3.161-2.298 5.816-2.298h5.226c-1.683 0.497-3.765 4.741-4.697 6.136-0.934 1.395-2.292 2.577-3.315 3.172-0.029-0.1-0.051-0.203-0.072-0.303 0.020 0.103 0.043 0.203 0.070 0.306h0.002c0.693 2.79 3.364 6.425 8.012 10.905-0.424 0.186-1.338 0.296-2.45 0.358-0.92 0.052-1.967 0.074-2.99 0.081-0.725 0.007-1.432 0.007-2.068 0.007-1.5-1.524-2.552-2.993-3.243-4.39-0.135-0.267-0.255-0.53-0.361-0.793-2.549-6.244 1.984-10.952 4.892-12.66 0.003-0.002 0.008-0.005 0.014-0.010 0.077-0.043 0.428-0.239 0.71-0.315 0.017-0.005 0.034-0.010 0.048-0.012 0.022-0.005 0.044-0.010 0.063-0.012 0.099-0.017 0.18-0.010 0.226 0.036-0.013-0.060-0.046-0.135-0.099-0.225v-0.002c-0.070-0.131-0.156-0.239-0.262-0.315-0.335-0.236-0.879-0.186-1.806 0.337-0.26-0.019-0.503-0.007-0.732 0.029h-0.002c-0.768 0.115-1.38 0.502-1.95 1.027l-0.002 0.002-0.005 0.002c-0.342 0.318-0.669 0.683-1.006 1.075l-0.002 0.002c-0.017 0.019-0.034 0.036-0.051 0.055l-0.089 0.103-0.002 0.002-0.159 0.184-0.277 0.32-0.020 0.021c-0.089 0.1-0.178 0.201-0.272 0.303-0.681 0.748-1.235 1.321-1.815 1.782-0.681 0.547-1.401 0.939-2.405 1.28-0.51 0.175-1.006 0.208-1.481 0.153-0.065-0.007-0.128-0.017-0.193-0.029-1.42-0.244-2.598-1.283-3.141-1.846-0.409-0.419-1.758-1.999-4.048-4.74l-0.351-0.42c-0.417-0.5-0.863-1.036-1.338-1.607h5.809c1.596 0 4.459 0.521 7.526 4.78z"></path>
    </symbol>
    <symbol id="icon-user" viewBox="0 0 20 28">
      <path fill="currentColor" d="M20 21.859c0 2.281-1.5 4.141-3.328 4.141h-13.344c-1.828 0-3.328-1.859-3.328-4.141 0-4.109 1.016-8.859 5.109-8.859 1.266 1.234 2.984 2 4.891 2s3.625-0.766 4.891-2c4.094 0 5.109 4.75 5.109 8.859zM16 8c0 3.313-2.688 6-6 6s-6-2.688-6-6 2.688-6 6-6 6 2.688 6 6z"></path>
    </symbol>
    <symbol id="icon-person" viewBox="0 0 24 24">
      <path fill="currentColor" d="M12 14.016q2.531 0 5.273 1.102t2.742 2.883v2.016h-16.031v-2.016q0-1.781 2.742-2.883t5.273-1.102zM12 12q-1.641 0-2.813-1.172t-1.172-2.813 1.172-2.836 2.813-1.195 2.813 1.195 1.172 2.836-1.172 2.813-2.813 1.172z"></path>
    </symbol>
    <symbol id="icon-edit" viewBox="0 0 24 24">
      <path fill="currentColor" d="M11 3h-7c-0.828 0-1.58 0.337-2.121 0.879s-0.879 1.293-0.879 2.121v14c0 0.828 0.337 1.58 0.879 2.121s1.293 0.879 2.121 0.879h14c0.828 0 1.58-0.337 2.121-0.879s0.879-1.293 0.879-2.121v-7c0-0.552-0.448-1-1-1s-1 0.448-1 1v7c0 0.276-0.111 0.525-0.293 0.707s-0.431 0.293-0.707 0.293h-14c-0.276 0-0.525-0.111-0.707-0.293s-0.293-0.431-0.293-0.707v-14c0-0.276 0.111-0.525 0.293-0.707s0.431-0.293 0.707-0.293h7c0.552 0 1-0.448 1-1s-0.448-1-1-1zM17.793 1.793l-9.5 9.5c-0.122 0.121-0.217 0.28-0.263 0.465l-1 4c-0.039 0.15-0.042 0.318 0 0.485 0.134 0.536 0.677 0.862 1.213 0.728l4-1c0.167-0.041 0.33-0.129 0.465-0.263l9.5-9.5c0.609-0.609 0.914-1.41 0.914-2.207s-0.305-1.598-0.914-2.207-1.411-0.915-2.208-0.915-1.598 0.305-2.207 0.914zM19.207 3.207c0.219-0.219 0.504-0.328 0.793-0.328s0.574 0.109 0.793 0.328 0.328 0.504 0.328 0.793-0.109 0.574-0.328 0.793l-9.304 9.304-2.114 0.529 0.529-2.114z"></path>
    </symbol>
    <symbol id="icon-remove" viewBox="0 0 24 24">
      <path fill="currentColor" d="M18 7v13c0 0.276-0.111 0.525-0.293 0.707s-0.431 0.293-0.707 0.293h-10c-0.276 0-0.525-0.111-0.707-0.293s-0.293-0.431-0.293-0.707v-13zM17 5v-1c0-0.828-0.337-1.58-0.879-2.121s-1.293-0.879-2.121-0.879h-4c-0.828 0-1.58 0.337-2.121 0.879s-0.879 1.293-0.879 2.121v1h-4c-0.552 0-1 0.448-1 1s0.448 1 1 1h1v13c0 0.828 0.337 1.58 0.879 2.121s1.293 0.879 2.121 0.879h10c0.828 0 1.58-0.337 2.121-0.879s0.879-1.293 0.879-2.121v-13h1c0.552 0 1-0.448 1-1s-0.448-1-1-1zM9 5v-1c0-0.276 0.111-0.525 0.293-0.707s0.431-0.293 0.707-0.293h4c0.276 0 0.525 0.111 0.707 0.293s0.293 0.431 0.293 0.707v1zM9 11v6c0 0.552 0.448 1 1 1s1-0.448 1-1v-6c0-0.552-0.448-1-1-1s-1 0.448-1 1zM13 11v6c0 0.552 0.448 1 1 1s1-0.448 1-1v-6c0-0.552-0.448-1-1-1s-1 0.448-1 1z"></path>
    </symbol>
    <symbol id="icon-unlocked" viewBox="0 0 32 32">
      <path fill="currentColor" d="M20 23.915v2.594c0 0.271 0.232 0.491 0.5 0.491 0.276 0 0.5-0.228 0.5-0.491v-2.594c0.583-0.206 1-0.762 1-1.415 0-0.828-0.672-1.5-1.5-1.5s-1.5 0.672-1.5 1.5c0 0.653 0.417 1.209 1 1.415v0 0zM13 8.5c0-2.485-2.020-4.5-4.5-4.5-2.485 0-4.5 2.017-4.5 4.5v3.999c0 0.822-0.672 1.501-1.5 1.501-0.834 0-1.5-0.672-1.5-1.501v-4c0-4.143 3.358-7.499 7.5-7.499 4.134 0 7.5 3.358 7.5 7.499v7.501h11.991c1.663 0 3.009 1.347 3.009 3.009v9.981c0 1.673-1.347 3.009-3.009 3.009h-14.982c-1.663 0-3.009-1.347-3.009-3.009v-9.981c0-1.67 1.342-3.005 3-3.009v-7.5z"></path>
    </symbol>
    <symbol id="icon-locked" viewBox="0 0 32 32">
      <path fill="currentColor" d="M15 21.915v0c-0.583-0.206-1-0.762-1-1.415 0-0.828 0.672-1.5 1.5-1.5s1.5 0.672 1.5 1.5c0 0.653-0.417 1.209-1 1.415v2.594c0 0.263-0.224 0.491-0.5 0.491-0.268 0-0.5-0.22-0.5-0.491v-2.594zM8 14v0 0c-1.658 0.005-3 1.34-3 3.009v9.981c0 1.662 1.346 3.009 3.009 3.009h14.982c1.662 0 3.009-1.337 3.009-3.009v-9.981c0-1.659-1.341-3.005-3-3.009v-3.501c0-4.142-3.366-7.499-7.5-7.499-4.142 0-7.5 3.357-7.5 7.499v3.501zM11 14v-3.499c0-2.492 2.015-4.501 4.5-4.501 2.48 0 4.5 2.015 4.5 4.501v3.499h-9z"></path>
    </symbol>
    <symbol id="icon-cold" viewBox="0 0 26 28">
      <path fill="currentColor" d="M24.469 17.453l-2.609 0.516 2.906 1.672c0.469 0.266 0.641 0.891 0.359 1.359s-0.891 0.641-1.359 0.359l-2.906-1.656 0.859 2.5c0.438 1.25-1.469 1.891-1.891 0.656l-1.594-4.688-4.234-2.438v4.891l3.25 3.719c0.875 0.984-0.641 2.312-1.5 1.313l-1.75-2v3.344c0 0.547-0.453 1-1 1s-1-0.453-1-1v-3.344l-1.75 2c-0.859 1-2.375-0.328-1.5-1.313l3.25-3.719v-4.891l-4.234 2.438-1.594 4.688c-0.422 1.234-2.328 0.594-1.891-0.656l0.859-2.5-2.906 1.656c-0.469 0.281-1.078 0.109-1.359-0.359s-0.109-1.094 0.359-1.359l2.906-1.672-2.609-0.516c-1.297-0.266-0.906-2.219 0.391-1.969l4.844 0.969 4.234-2.453-4.234-2.453-4.844 0.969c-0.063 0.016-0.141 0.016-0.203 0.016-1.188 0-1.359-1.75-0.187-1.984l2.609-0.516-2.906-1.672c-0.469-0.266-0.641-0.891-0.359-1.359 0.281-0.484 0.891-0.641 1.359-0.359l2.906 1.656-0.859-2.5c-0.438-1.25 1.469-1.891 1.891-0.656l1.594 4.688 4.234 2.438v-4.891l-3.25-3.719c-0.875-0.984 0.641-2.312 1.5-1.313l1.75 2v-3.344c0-0.547 0.453-1 1-1s1 0.453 1 1v3.344l1.75-2c0.859-1 2.375 0.328 1.5 1.313l-3.25 3.719v4.891l4.234-2.438 1.594-4.688c0.422-1.234 2.328-0.594 1.891 0.656l-0.859 2.5 2.906-1.656c0.469-0.281 1.078-0.109 1.359 0.359s0.109 1.094-0.359 1.359l-2.906 1.672 2.609 0.516c1.172 0.234 1 1.984-0.187 1.984-0.063 0-0.141 0-0.203-0.016l-4.844-0.969-4.234 2.453 4.234 2.453 4.844-0.969c1.297-0.25 1.687 1.703 0.391 1.969z"></path>
    </symbol>
    <symbol id="icon-fire" viewBox="0 0 32 32">
      <path fill="currentColor" d="M10.031 32c-2.133-4.438-0.997-6.981 0.642-9.376 1.795-2.624 2.258-5.221 2.258-5.221s1.411 1.834 0.847 4.703c2.493-2.775 2.963-7.196 2.587-8.889 5.635 3.938 8.043 12.464 4.798 18.783 17.262-9.767 4.294-24.38 2.036-26.027 0.753 1.646 0.895 4.433-0.625 5.785-2.573-9.759-8.937-11.759-8.937-11.759 0.753 5.033-2.728 10.536-6.084 14.648-0.118-2.007-0.243-3.392-1.298-5.312-0.237 3.646-3.023 6.617-3.777 10.27-1.022 4.946 0.765 8.568 7.555 12.394z"></path>
    </symbol>
    <symbol id="icon-fan1" viewBox="0 0 32 32">
      <path fill="currentColor" d="M16.163 0c-0.106 0-0.213 0.006-0.319 0.031-5.344 1.031-8.619 6.362-7.688 11.8 0.181 1.063 0.525 2.056 0.994 2.963l-7.15-0.794h-0.163c-1.012 0-1.837 0.825-1.837 1.838 0 0.106 0.006 0.212 0.031 0.319 1.031 5.344 6.362 8.619 11.8 7.688 1.063-0.181 2.056-0.525 2.963-0.994l-0.794 7.15v0.163c0 1.012 0.825 1.837 1.838 1.837 0.106 0 0.213-0.006 0.319-0.031 5.344-1.031 8.619-6.363 7.688-11.8-0.181-1.063-0.525-2.056-0.994-2.962l7.15 0.794h0.163c1.012 0 1.837-0.825 1.837-1.837 0-0.106-0.006-0.213-0.031-0.319-1.031-5.344-6.363-8.619-11.8-7.688-1.063 0.181-2.056 0.525-2.962 0.994l0.794-7.15v-0.163c0-1.012-0.825-1.837-1.837-1.837zM16 14c1.105 0 2 0.895 2 2s-0.895 2-2 2v0c-1.105 0-2-0.895-2-2s0.895-2 2-2v0z"></path>
    </symbol>
    <symbol id="icon-fan" viewBox="0 0 32 32">
      <path fill="currentColor" d="M10.162 12.227c-0.566 0.059-1.784-0.378-2.755-1.078-1.039-0.751-1.698-0.654-2.050-0.232-0.136 0.16-1.926 2.45-0.323 6.103s4.368 3.651 5.551 3.046c1.647-0.842 2.196-3.359 2.367-4.547-0.267 0.008-0.541-0.023-0.812-0.097-1.405-0.386-2.257-1.788-1.978-3.195zM14.755 10.639c0.139-0.506 1.185-1.421 2.348-1.944 1.169-0.524 1.414-1.144 1.226-1.662-0.071-0.196-1.16-2.891-5.124-3.329-3.965-0.437-5.345 1.956-5.414 3.284-0.093 1.837 1.789 3.56 2.738 4.309 0.628-1.008 1.863-1.528 3.067-1.199 0.436 0.119 0.819 0.337 1.132 0.623 0.010-0.031 0.020-0.059 0.026-0.083zM20.448 11.189c-1.572-1.018-4.069-0.203-5.165 0.24 0.334 0.607 0.443 1.338 0.245 2.059-0.249 0.908-0.924 1.587-1.75 1.875 0.009 0.010 0.018 0.021 0.026 0.030 0.37 0.373 0.639 1.738 0.511 3.004-0.131 1.275 0.283 1.798 0.825 1.893 0.205 0.036 3.085 0.441 5.447-2.773 2.359-3.214 0.976-5.606-0.139-6.329z"></path>
      <path fill="currentColor" d="M9.721 24.419c-5.351-1.466-8.868-6.317-8.868-11.611v0c0-1.051 0.139-2.121 0.43-3.183v0c1.466-5.356 6.317-8.874 11.611-8.874v0c1.052 0 2.121 0.139 3.183 0.43v0c5.351 1.465 8.868 6.315 8.868 11.611v0c0 1.053-0.139 2.123-0.43 3.188v0c-1.466 5.352-6.316 8.869-11.611 8.869v0c-1.052-0-2.12-0.139-3.183-0.43v0zM2.247 9.889c-0.267 0.975-0.394 1.955-0.394 2.919v0c0 4.853 3.224 9.306 8.132 10.646v0c0.976 0.267 1.955 0.395 2.919 0.395v0c4.853 0 9.304-3.225 10.645-8.133v0c0.268-0.977 0.395-1.959 0.395-2.924v0c0-4.854-3.225-9.305-8.132-10.647v0c-0.975-0.267-1.955-0.394-2.919-0.394v0c-4.851 0.001-9.303 3.226-10.646 8.138v0z"></path>
      <path fill="currentColor" d="M13.4 10.573c-1.183-0.324-2.405 0.373-2.729 1.556s0.373 2.405 1.556 2.729c1.183 0.324 2.405-0.373 2.729-1.557s-0.373-2.406-1.557-2.729zM13.668 12.95c-0.129 0.472-0.616 0.75-1.088 0.62-0.472-0.129-0.749-0.615-0.62-1.087s0.615-0.75 1.087-0.621c0.473 0.13 0.75 0.615 0.621 1.088z"></path>
    </symbol>
    <symbol id="icon-change" viewBox="0 0 28 28">
      <path fill="currentColor" d="M28 18.5v3c0 0.266-0.234 0.5-0.5 0.5h-21.5v3c0 0.266-0.219 0.5-0.5 0.5-0.141 0-0.266-0.063-0.375-0.156l-4.984-5c-0.094-0.094-0.141-0.219-0.141-0.344 0-0.141 0.047-0.266 0.141-0.359l5-5c0.094-0.094 0.234-0.141 0.359-0.141 0.266 0 0.5 0.219 0.5 0.5v3h21.5c0.266 0 0.5 0.219 0.5 0.5zM28 10c0 0.125-0.047 0.266-0.141 0.359l-5 5c-0.094 0.094-0.234 0.141-0.359 0.141-0.266 0-0.5-0.234-0.5-0.5v-3h-21.5c-0.266 0-0.5-0.234-0.5-0.5v-3c0-0.266 0.234-0.5 0.5-0.5h21.5v-3c0-0.281 0.219-0.5 0.5-0.5 0.141 0 0.266 0.063 0.375 0.156l4.984 4.984c0.094 0.094 0.141 0.234 0.141 0.359z"></path>
    </symbol>
    <symbol id="icon-eye" viewBox="0 0 32 32">
      <path fill="currentColor" d="M16 6c-6.979 0-13.028 4.064-16 10 2.972 5.936 9.021 10 16 10s13.027-4.064 16-10c-2.972-5.936-9.021-10-16-10zM23.889 11.303c1.88 1.199 3.473 2.805 4.67 4.697-1.197 1.891-2.79 3.498-4.67 4.697-2.362 1.507-5.090 2.303-7.889 2.303s-5.527-0.796-7.889-2.303c-1.88-1.199-3.473-2.805-4.67-4.697 1.197-1.891 2.79-3.498 4.67-4.697 0.122-0.078 0.246-0.154 0.371-0.228-0.311 0.854-0.482 1.776-0.482 2.737 0 4.418 3.582 8 8 8s8-3.582 8-8c0-0.962-0.17-1.883-0.482-2.737 0.124 0.074 0.248 0.15 0.371 0.228v0zM16 13c0 1.657-1.343 3-3 3s-3-1.343-3-3 1.343-3 3-3 3 1.343 3 3z"></path>
    </symbol>
    <symbol id="icon-eye-blocked" viewBox="0 0 32 32">
      <path fill="currentColor" d="M29.561 0.439c-0.586-0.586-1.535-0.586-2.121 0l-6.318 6.318c-1.623-0.492-3.342-0.757-5.122-0.757-6.979 0-13.028 4.064-16 10 1.285 2.566 3.145 4.782 5.407 6.472l-4.968 4.968c-0.586 0.586-0.586 1.535 0 2.121 0.293 0.293 0.677 0.439 1.061 0.439s0.768-0.146 1.061-0.439l27-27c0.586-0.586 0.586-1.536 0-2.121zM13 10c1.32 0 2.44 0.853 2.841 2.037l-3.804 3.804c-1.184-0.401-2.037-1.521-2.037-2.841 0-1.657 1.343-3 3-3zM3.441 16c1.197-1.891 2.79-3.498 4.67-4.697 0.122-0.078 0.246-0.154 0.371-0.228-0.311 0.854-0.482 1.776-0.482 2.737 0 1.715 0.54 3.304 1.459 4.607l-1.904 1.904c-1.639-1.151-3.038-2.621-4.114-4.323z"></path>
      <path fill="currentColor" d="M24 13.813c0-0.849-0.133-1.667-0.378-2.434l-10.056 10.056c0.768 0.245 1.586 0.378 2.435 0.378 4.418 0 8-3.582 8-8z"></path>
      <path fill="currentColor" d="M25.938 9.062l-2.168 2.168c0.040 0.025 0.079 0.049 0.118 0.074 1.88 1.199 3.473 2.805 4.67 4.697-1.197 1.891-2.79 3.498-4.67 4.697-2.362 1.507-5.090 2.303-7.889 2.303-1.208 0-2.403-0.149-3.561-0.439l-2.403 2.403c1.866 0.671 3.873 1.036 5.964 1.036 6.978 0 13.027-4.064 16-10-1.407-2.81-3.504-5.2-6.062-6.938z"></path>
    </symbol>
    <symbol id="icon-calendar" viewBox="0 0 20 20">
      <path fill="currentColor" d="M1 4c0-1.1 0.9-2 2-2h14c1.105 0 2 0.895 2 2v0 14c0 1.105-0.895 2-2 2v0h-14c-1.105 0-2-0.895-2-2v0-14zM3 6v12h14v-12h-14zM5 0h2v2h-2v-2zM13 0h2v2h-2v-2zM5 9h2v2h-2v-2zM5 13h2v2h-2v-2zM9 9h2v2h-2v-2zM9 13h2v2h-2v-2zM13 9h2v2h-2v-2zM13 13h2v2h-2v-2z"></path>
    </symbol>
    <symbol id="icon-gear" viewBox="0 0 32 32">
      <path fill="currentColor" d="M29.181 19.070c-1.679-2.908-0.669-6.634 2.255-8.328l-3.145-5.447c-0.898 0.527-1.943 0.829-3.058 0.829-3.361 0-6.085-2.742-6.085-6.125h-6.289c0.008 1.044-0.252 2.103-0.811 3.070-1.679 2.908-5.411 3.897-8.339 2.211l-3.144 5.447c0.905 0.515 1.689 1.268 2.246 2.234 1.676 2.903 0.672 6.623-2.241 8.319l3.145 5.447c0.895-0.522 1.935-0.82 3.044-0.82 3.35 0 6.067 2.725 6.084 6.092h6.289c-0.003-1.034 0.259-2.080 0.811-3.038 1.676-2.903 5.399-3.894 8.325-2.219l3.145-5.447c-0.899-0.515-1.678-1.266-2.232-2.226zM16 22.479c-3.578 0-6.479-2.901-6.479-6.479s2.901-6.479 6.479-6.479c3.578 0 6.479 2.901 6.479 6.479s-2.901 6.479-6.479 6.479z"></path>
    </symbol>
    <symbol id="icon-home" viewBox="0 0 24 24">
      <path fill="currentColor" d="M9.984 20.016h-4.969v-8.016h-3l9.984-9 9.984 9h-3v8.016h-4.969v-6h-4.031v6z"></path>
    </symbol>
    <symbol id="icon-home1" viewBox="0 0 24 24">
      <path fill="currentColor" d="M12 3c0 0-6.186 5.34-9.643 8.232-0.203 0.184-0.357 0.452-0.357 0.768 0 0.553 0.447 1 1 1h2v7c0 0.553 0.447 1 1 1h3c0.553 0 1-0.448 1-1v-4h4v4c0 0.552 0.447 1 1 1h3c0.553 0 1-0.447 1-1v-7h2c0.553 0 1-0.447 1-1 0-0.316-0.154-0.584-0.383-0.768-3.433-2.892-9.617-8.232-9.617-8.232z"></path>
    </symbol>
    <symbol id="icon-home11" viewBox="0 0 32 32">
      <path fill="currentColor" d="M32 18.451l-16-12.42-16 12.42v-5.064l16-12.42 16 12.42zM28 18v12h-8v-8h-8v8h-8v-12l12-9z"></path>
    </symbol>
    <symbol id="icon-off" viewBox="0 0 30 32">
      <path fill="currentColor" d="M20.338 3.518l0.009 0.003h0.002c0.757 0.308 1.484 0.678 2.172 1.101 0.683 0.42 1.334 0.9 1.945 1.43 3.123 2.71 5.099 6.709 5.099 11.167v0.004h-0.002c-0.002 4.080-1.657 7.776-4.332 10.45-2.671 2.671-6.363 4.324-10.44 4.326v0.002h-0.012v-0.002c-4.080-0.001-7.775-1.655-10.449-4.33l-0.001 0.001c-2.671-2.671-4.324-6.364-4.327-10.443h-0.002v-0.019h0.002c0.001-1.796 0.323-3.519 0.909-5.108 0.239-0.647 0.523-1.275 0.848-1.878 1.664-3.092 4.4-5.524 7.709-6.8l0.686-0.265v5.933l-0.252 0.152c-0.374 0.229-0.732 0.486-1.068 0.762l0.001 0.001c-0.34 0.281-0.659 0.584-0.953 0.905h-0.002c-1.519 1.66-2.446 3.875-2.446 6.307v0.004h-0.002c0.001 2.578 1.049 4.916 2.741 6.608l-0.001 0.001c1.691 1.69 4.025 2.736 6.601 2.738v-0.002h0.012v0.002c2.58-0.001 4.918-1.048 6.608-2.739s2.736-4.026 2.739-6.603h-0.002v-0.015h0.002c-0.001-1.639-0.425-3.183-1.168-4.521-0.117-0.211-0.248-0.426-0.39-0.639-0.708-1.064-1.628-1.977-2.698-2.673l-0.23-0.15v-5.986l0.691 0.277zM12.372 0h5.324v14.022h-5.829v-14.022h0.504z"></path>
    </symbol>
    <symbol id="icon-bolt" viewBox="0 0 24 24">
      <path fill="currentColor" d="M11.016 21h-1.031l1.031-6.984h-3.516q-0.75 0-0.375-0.656 0.141-0.234 0.047-0.141 2.391-4.172 5.813-10.219h1.031l-1.031 6.984h3.516q0.656 0 0.422 0.656z"></path>
    </symbol>
    <symbol id="icon-thermometer" viewBox="0 0 16 28">
      <path fill="currentColor" d="M10 21c0 1.656-1.344 3-3 3s-3-1.344-3-3c0-1.25 0.781-2.391 2-2.828v-14.172h2v14.172c1.219 0.438 2 1.578 2 2.828zM12 21c0-1.641-0.781-3.078-2-4v-12c0-1.656-1.344-3-3-3s-3 1.344-3 3v12c-1.219 0.922-2 2.359-2 4 0 2.766 2.234 5 5 5s5-2.234 5-5zM14 21c0 3.859-3.141 7-7 7s-7-3.141-7-7c0-1.906 0.766-3.625 2-4.891v-11.109c0-2.766 2.234-5 5-5s5 2.234 5 5v11.109c1.234 1.266 2 2.984 2 4.891zM16 12v2h-3v-2h3zM16 8v2h-3v-2h3zM16 4v2h-3v-2h3z"></path>
    </symbol>
    <symbol id="icon-x" viewBox="0 0 32 32">
      <path fill="currentColor" d="M16 0c-8.836 0-16 7.164-16 16s7.164 16 16 16 16-7.164 16-16-7.164-16-16-16zM23.914 21.086l-2.828 2.828-5.086-5.086-5.086 5.086-2.828-2.828 5.086-5.086-5.086-5.086 2.828-2.828 5.086 5.086 5.086-5.086 2.828 2.828-5.086 5.086 5.086 5.086z"></path>
    </symbol>
    <symbol id="icon-checkmark" viewBox="0 0 32 32">
      <path fill="currentColor" d="M16 0c-8.836 0-16 7.164-16 16s7.164 16 16 16 16-7.164 16-16-7.164-16-16-16zM13.52 23.383l-7.362-7.363 2.828-2.828 4.533 4.535 9.617-9.617 2.828 2.828-12.444 12.445z"></path>
    </symbol>
    <symbol id="icon-warning-triangle" viewBox="0 0 32 32">
      <path fill="currentColor" d="M2.535 30.465h26.943c1.884 0 3.097-1.987 2.245-3.665l-13.471-23.872c-0.929-1.858-3.587-1.858-4.516 0l-13.471 23.872c-0.826 1.677 0.387 3.665 2.271 3.665zM18.122 24.916c0 1.239-0.903 2.194-2.194 2.194s-2.194-0.955-2.194-2.194v-0.052c0-1.239 0.903-2.194 2.194-2.194s2.194 0.955 2.194 2.194v0.052zM14.741 8.787h2.529c0.697 0 1.11 0.594 1.032 1.342l-1.11 9.704c-0.077 0.697-0.542 1.136-1.187 1.136s-1.11-0.439-1.187-1.136l-1.11-9.704c-0.077-0.748 0.336-1.342 1.033-1.342z"></path>
    </symbol>
    <symbol id="icon-help" viewBox="0 0 24 24">
      <path fill="currentColor" d="M12 6q1.641 0 2.813 1.172t1.172 2.813q0 1.266-1.5 2.602t-1.5 2.414h-1.969q0-1.078 0.469-1.852t1.031-1.125 1.031-0.867 0.469-1.172q0-0.797-0.609-1.383t-1.406-0.586-1.406 0.586-0.609 1.383h-1.969q0-1.641 1.172-2.813t2.813-1.172zM12 20.016q3.281 0 5.648-2.367t2.367-5.648-2.367-5.648-5.648-2.367-5.648 2.367-2.367 5.648 2.367 5.648 5.648 2.367zM12 2.016q4.125 0 7.055 2.93t2.93 7.055-2.93 7.055-7.055 2.93-7.055-2.93-2.93-7.055 2.93-7.055 7.055-2.93zM11.016 18v-2.016h1.969v2.016h-1.969z"></path>
    </symbol>
    <symbol id="icon-bell" viewBox="0 0 28 28">
      <path fill="currentColor" d="M14.25 26.5c0-0.141-0.109-0.25-0.25-0.25-1.234 0-2.25-1.016-2.25-2.25 0-0.141-0.109-0.25-0.25-0.25s-0.25 0.109-0.25 0.25c0 1.516 1.234 2.75 2.75 2.75 0.141 0 0.25-0.109 0.25-0.25zM27 22c0 1.094-0.906 2-2 2h-7c0 2.203-1.797 4-4 4s-4-1.797-4-4h-7c-1.094 0-2-0.906-2-2 2.312-1.953 5-5.453 5-13 0-3 2.484-6.281 6.625-6.891-0.078-0.187-0.125-0.391-0.125-0.609 0-0.828 0.672-1.5 1.5-1.5s1.5 0.672 1.5 1.5c0 0.219-0.047 0.422-0.125 0.609 4.141 0.609 6.625 3.891 6.625 6.891 0 7.547 2.688 11.047 5 13z"></path>
    </symbol>
    <symbol id="icon-filter_list" viewBox="0 0 24 24">
      <path fill="currentColor" d="M6 12.984v-1.969h12v1.969h-12zM3 6h18v2.016h-18v-2.016zM9.984 18v-2.016h4.031v2.016h-4.031z"></path>
    </symbol>
    <symbol id="icon-handle-touch" viewBox="0 0 22 32">
      <path fill="currentColor" d="M4.172 15.478v-2.793c-1.178-1.077-1.918-2.658-1.918-4.408 0-3.298 2.692-5.989 5.99-5.989s5.989 2.692 5.989 5.989c0 1.716-0.74 3.298-1.918 4.374v0.639c0.707 0.067 1.38 0.303 1.952 0.673 1.38-1.481 2.254-3.466 2.254-5.687 0.034-4.576-3.701-8.278-8.244-8.278-4.576 0-8.278 3.701-8.278 8.278 0 3.062 1.682 5.754 4.172 7.201z"></path>
      <path fill="currentColor" d="M21.603 19.617c0-1.11-0.909-2.019-2.053-2.019-0.74 0-1.38 0.37-1.716 0.976v-0.067c0-1.11-0.909-2.053-2.053-2.053-0.74 0-1.38 0.37-1.716 0.942v-0.034c0-1.11-0.909-2.053-2.053-2.053-0.74 0-1.38 0.37-1.716 0.942v-6.831c0-0.538-0.202-1.077-0.606-1.447-0.37-0.37-0.909-0.606-1.447-0.606v0c-1.11 0-2.019 0.909-2.019 2.053v12.618c0 0.135-0.067 0.202-0.168 0.269-0.101 0.034-0.236 0.034-0.303-0.067l-2.086-2.053c-0.707-0.707-1.783-0.808-2.625-0.236-0.471 0.337-0.808 0.841-0.875 1.413s0.067 1.178 0.471 1.615l5.148 6.225c1.447 1.783 3.6 2.793 5.889 2.793h3.197c1.783 0 3.499-0.707 4.744-1.985 1.279-1.279 1.985-2.961 1.985-4.744v-5.653z"></path>
    </symbol>
    <symbol id="icon-dashboard-click" viewBox="0 0 32 32">
      <path fill="currentColor" d="M30.958 20.093h-29.767c-0.595 0-1.191-0.447-1.191-1.191v-15.628c0-1.786 1.488-3.274 3.274-3.274h25.302c1.786 0 3.274 1.488 3.274 3.274v15.628c0.149 0.744-0.298 1.191-0.893 1.191zM2.233 17.86h27.535v-14.586c0-0.595-0.447-1.191-1.191-1.191h-25.302c-0.595 0-1.191 0.446-1.191 1.191v14.586z"></path>
      <path fill="currentColor" d="M28.577 24.558h-25.302c-1.786 0-3.274-1.488-3.274-3.274v-2.233c0-0.744 0.447-1.191 1.191-1.191h29.767c0.595 0 1.191 0.447 1.191 1.191v2.233c-0.149 1.786-1.637 3.274-3.572 3.274zM2.233 20.093v1.191c0 0.595 0.446 1.191 1.191 1.191h25.302c0.595 0 1.191-0.447 1.191-1.191v-1.191h-27.684z"></path>
      <path fill="currentColor" d="M22.028 32h-11.907c-0.298 0-0.744-0.149-0.893-0.447s-0.298-0.744-0.149-1.042l2.977-7.442c0.149-0.447 0.447-0.744 1.042-0.744h5.954c0.447 0 0.893 0.298 1.042 0.744l2.977 7.442c0.149 0.298 0.149 0.744-0.149 1.042s-0.595 0.447-0.893 0.447zM11.758 29.767h8.633l-2.084-5.209h-4.465c0 0-2.084 5.209-2.084 5.209z"></path>
      <path fill="currentColor" d="M24.112 32h-16.372c-0.595 0-1.191-0.447-1.191-1.191s0.595-1.042 1.191-1.042h16.372c0.595 0 1.191 0.447 1.191 1.191s-0.447 1.042-1.191 1.042z"></path>
      <path fill="currentColor" d="M14.437 14.288c0 0 0 0 0 0-0.447 0-0.893-0.298-1.042-0.744l-2.084-6.251c-0.149-0.447 0-0.893 0.298-1.191s0.744-0.447 1.191-0.298l6.251 2.084c0.447 0.149 0.744 0.446 0.744 0.893s-0.149 0.893-0.595 1.042l-2.381 1.488-1.488 2.381c-0.149 0.447-0.447 0.595-0.893 0.595v0zM14.14 8.633l0.595 1.935 0.298-0.595c0.149-0.149 0.149-0.298 0.447-0.447l0.595-0.298-1.935-0.595z"></path>
      <path fill="currentColor" d="M18.158 13.842c-0.298 0-0.595-0.149-0.744-0.298l-1.637-1.637c-0.447-0.447-0.447-1.191 0-1.637s1.191-0.447 1.637 0l1.488 1.637c0.447 0.447 0.447 1.191 0 1.488-0.149 0.298-0.447 0.447-0.744 0.447z"></path>
    </symbol>
    <symbol id="icon-one-finger" viewBox="0 0 32 32">
      <path fill="currentColor" d="M18.991 10.491c0-0.822-0.666-1.491-1.5-1.491-0.828 0-1.5 0.675-1.5 1.491v4.509h-1v-9.491c0-0.834-0.666-1.509-1.5-1.509-0.828 0-1.5 0.666-1.5 1.509v10.291c-2.059-2.2-4.769-4.619-5.878-3.503-1.087 1.094 1.716 4.106 5.625 10.688 1.762 2.966 3.994 5.016 7.753 5.016 4.141 0 7.5-3.359 7.5-7.5v-7.994c0-0.831-0.666-1.506-1.5-1.506-0.828 0-1.5 0.675-1.5 1.506v2.494h-1v-3.509c0-0.825-0.666-1.491-1.5-1.491-0.828 0-1.5 0.662-1.5 1.491v2.509h-1v-3.509z"></path>
    </symbol>
    <symbol id="icon-battery_5-15" viewBox="0 0 57 32">
      <path fill="#000" style="fill: var(--color1, #000); stroke: var(--color1, #000)" stroke="#000" stroke-linejoin="miter" stroke-linecap="butt" stroke-miterlimit="10" stroke-width="0.6909" d="M49.525 28.36v-4.55s4.6 0 4.6 0c1.163 0 2.106-0.944 2.106-2.106v-11.442c0-1.163-0.944-2.106-2.106-2.106h-4.6s0-4.55 0-4.55c0-1.803-1.466-3.269-3.269-3.269h-42.633c-1.803 0-3.269 1.466-3.269 3.269v24.737c0 1.803 1.466 3.269 3.269 3.269h42.633c1.803 0 3.269-1.466 3.269-3.286v0zM54.125 9.656c0.32 0 0.607 0.286 0.607 0.607v11.442c0 0.32-0.286 0.607-0.607 0.607h-4.6s0-12.672 0-12.672h4.6zM3.64 30.163c-0.977 0-1.786-0.792-1.786-1.786v-24.754c0-0.977 0.809-1.786 1.786-1.786h42.616c0.977 0 1.786 0.792 1.786 1.786v24.737c0 0.977-0.809 1.786-1.786 1.786h-42.616z"></path>
      <path fill="#ff1b00" style="fill: var(--color2, #ff1b00)" d="M3.893 3.337v25.327h6.74v-25.327h-6.74z"></path>
    </symbol>
    <symbol id="icon-battery_15-33" viewBox="0 0 57 32">
      <path fill="#000" style="fill: var(--color1, #000); stroke: var(--color1, #000)" stroke="#000" stroke-linejoin="miter" stroke-linecap="butt" stroke-miterlimit="10" stroke-width="0.6909" d="M49.525 28.36v-4.55s4.6 0 4.6 0c1.163 0 2.106-0.944 2.106-2.106v-11.442c0-1.163-0.944-2.106-2.106-2.106h-4.6s0-4.55 0-4.55c0-1.803-1.466-3.269-3.269-3.269h-42.633c-1.803 0-3.269 1.466-3.269 3.269v24.737c0 1.803 1.466 3.269 3.269 3.269h42.633c1.803 0 3.269-1.466 3.269-3.286v0zM54.125 9.656c0.32 0 0.607 0.286 0.607 0.607v11.442c0 0.32-0.286 0.607-0.607 0.607h-4.6s0-12.672 0-12.672h4.6zM3.64 30.163c-0.977 0-1.786-0.792-1.786-1.786v-24.754c0-0.977 0.809-1.786 1.786-1.786h42.616c0.977 0 1.786 0.792 1.786 1.786v24.737c0 0.977-0.809 1.786-1.786 1.786h-42.616z"></path>
      <path fill="#f4d511" style="fill: var(--color3, #f4d511)" d="M3.893 3.337v25.327s13.481 0 13.481 0v-25.327s-13.481 0-13.481 0z"></path>
    </symbol>
    <symbol id="icon-battery_34-50" viewBox="0 0 57 32">
      <path fill="#000" style="fill: var(--color1, #000); stroke: var(--color1, #000)" stroke="#000" stroke-linejoin="miter" stroke-linecap="butt" stroke-miterlimit="10" stroke-width="0.6909" d="M49.525 28.36v-4.55s4.6 0 4.6 0c1.163 0 2.106-0.944 2.106-2.106v-11.442c0-1.163-0.944-2.106-2.106-2.106h-4.6s0-4.55 0-4.55c0-1.803-1.466-3.269-3.269-3.269h-42.633c-1.803 0-3.269 1.466-3.269 3.269v24.737c0 1.803 1.466 3.269 3.269 3.269h42.633c1.803 0 3.269-1.466 3.269-3.286v0zM54.125 9.656c0.32 0 0.607 0.286 0.607 0.607v11.442c0 0.32-0.286 0.607-0.607 0.607h-4.6s0-12.672 0-12.672h4.6zM3.64 30.163c-0.977 0-1.786-0.792-1.786-1.786v-24.754c0-0.977 0.809-1.786 1.786-1.786h42.616c0.977 0 1.786 0.792 1.786 1.786v24.737c0 0.977-0.809 1.786-1.786 1.786h-42.616z"></path>
      <path fill="#01bf00" style="fill: var(--color2, #01bf00)" d="M3.893 3.337v25.327s22.749 0 22.749 0v-25.327s-22.749 0-22.749 0z"></path>
    </symbol>
    <symbol id="icon-battery_51-75" viewBox="0 0 57 32">
      <path fill="#000" style="fill: var(--color1, #000); stroke: var(--color1, #000)" stroke="#000" stroke-linejoin="miter" stroke-linecap="butt" stroke-miterlimit="10" stroke-width="0.6909" d="M49.525 28.36v-4.55s4.6 0 4.6 0c1.163 0 2.106-0.944 2.106-2.106v-11.442c0-1.163-0.944-2.106-2.106-2.106h-4.6s0-4.55 0-4.55c0-1.803-1.466-3.269-3.269-3.269h-42.633c-1.803 0-3.269 1.466-3.269 3.269v24.737c0 1.803 1.466 3.269 3.269 3.269h42.633c1.803 0 3.269-1.466 3.269-3.286v0zM54.125 9.656c0.32 0 0.607 0.286 0.607 0.607v11.442c0 0.32-0.286 0.607-0.607 0.607h-4.6s0-12.672 0-12.672h4.6zM3.64 30.163c-0.977 0-1.786-0.792-1.786-1.786v-24.754c0-0.977 0.809-1.786 1.786-1.786h42.616c0.977 0 1.786 0.792 1.786 1.786v24.737c0 0.977-0.809 1.786-1.786 1.786h-42.616z"></path>
      <path fill="#01bf00" style="fill: var(--color2, #01bf00)" d="M3.556 3.337v25.327s33.281 0 33.281 0v-25.327s-33.281 0-33.281 0z"></path>
    </symbol>
    <symbol id="icon-battery_76-100" viewBox="0 0 57 32">
      <path fill="#010101" style="fill: var(--color3, #010101); stroke: var(--color3, #010101)" stroke="#010101" stroke-linejoin="miter" stroke-linecap="butt" stroke-miterlimit="10" stroke-width="0.6909" d="M49.525 28.36v-4.55s4.6 0 4.6 0c1.163 0 2.106-0.944 2.106-2.106v-11.442c0-1.163-0.944-2.106-2.106-2.106h-4.6s0-4.55 0-4.55c0-1.803-1.466-3.269-3.269-3.269h-42.633c-1.803 0-3.269 1.466-3.269 3.269v24.737c0 1.803 1.466 3.269 3.269 3.269h42.633c1.803 0 3.269-1.466 3.269-3.286v0zM54.125 9.656c0.32 0 0.607 0.286 0.607 0.607v11.442c0 0.32-0.286 0.607-0.607 0.607h-4.6s0-12.672 0-12.672h4.6zM3.64 30.163c-0.977 0-1.786-0.792-1.786-1.786v-24.754c0-0.977 0.809-1.786 1.786-1.786h42.616c0.977 0 1.786 0.792 1.786 1.786v24.737c0 0.977-0.809 1.786-1.786 1.786h-42.616z"></path>
      <path fill="#2fb44a" style="fill: var(--color4, #2fb44a)" d="M3.438 3.337v25.327s43.037 0 43.037 0v-25.327s-43.037 0-43.037 0z"></path>
    </symbol>
    <symbol id="icon-battery_unknown" viewBox="0 0 57 32">
      <path fill="#000" style="fill: var(--color1, #000); stroke: var(--color1, #000)" stroke="#000" stroke-linejoin="miter" stroke-linecap="butt" stroke-miterlimit="10" stroke-width="0.6909" d="M49.525 28.36v-4.55s4.6 0 4.6 0c1.163 0 2.106-0.944 2.106-2.106v-11.442c0-1.163-0.944-2.106-2.106-2.106h-4.6s0-4.55 0-4.55c0-1.803-1.466-3.269-3.269-3.269h-42.633c-1.803 0-3.269 1.466-3.269 3.269v24.737c0 1.803 1.466 3.269 3.269 3.269h42.633c1.803 0 3.269-1.466 3.269-3.286v0zM54.125 9.656c0.32 0 0.607 0.286 0.607 0.607v11.442c0 0.32-0.286 0.607-0.607 0.607h-4.6s0-12.672 0-12.672h4.6zM3.64 30.163c-0.977 0-1.786-0.792-1.786-1.786v-24.754c0-0.977 0.809-1.786 1.786-1.786h42.616c0.977 0 1.786 0.792 1.786 1.786v24.737c0 0.977-0.809 1.786-1.786 1.786h-42.616z"></path>
      <path fill="#231f20" style="fill: var(--color2, #231f20)" d="M23.288 19.766v-0.236c0-1.078 0.101-1.938 0.303-2.578s0.489-1.163 0.859-1.55c0.371-0.388 0.826-0.758 1.348-1.078 0.371-0.219 0.691-0.472 0.977-0.741s0.522-0.573 0.691-0.91c0.169-0.337 0.253-0.708 0.253-1.129 0-0.472-0.118-0.876-0.337-1.23s-0.522-0.623-0.893-0.809c-0.371-0.185-0.792-0.286-1.247-0.286-0.421 0-0.826 0.084-1.213 0.27s-0.691 0.455-0.944 0.826c-0.253 0.371-0.388 0.826-0.421 1.399h-3.202c0.034-1.129 0.303-2.090 0.826-2.848s1.213-1.331 2.090-1.719c0.859-0.388 1.82-0.573 2.865-0.573 1.146 0 2.157 0.202 3.016 0.607 0.876 0.404 1.55 0.977 2.039 1.702 0.489 0.741 0.725 1.618 0.725 2.629 0 0.691-0.101 1.298-0.32 1.837s-0.522 1.011-0.927 1.432c-0.404 0.421-0.876 0.792-1.432 1.129-0.489 0.303-0.876 0.607-1.196 0.927-0.303 0.32-0.539 0.708-0.691 1.129s-0.219 0.96-0.236 1.601v0.236h-2.983zM24.855 25.361c-0.539 0-0.994-0.185-1.399-0.573-0.388-0.388-0.59-0.843-0.59-1.399s0.202-0.994 0.59-1.382c0.388-0.388 0.859-0.573 1.399-0.573s0.994 0.185 1.382 0.573c0.388 0.388 0.59 0.843 0.59 1.382 0 0.371-0.084 0.691-0.27 0.994s-0.421 0.539-0.725 0.708-0.623 0.27-0.977 0.27z"></path>
    </symbol>
  </defs>
</svg>
